# xmcd
#
# Track frame offsets: 
#        150
#        13214
#        23950
#        35562
#        46073
#        57328
#        69163
#        80106
#        91753
#        104627
#        115286
#        127911
#        139631
#        148712
#        159255
#        170036
#        179882
#        194622
#        205212
#        214732
#        225955
#        236593
#        248527
#        258829
#
# Disc length: 3592 seconds
#
# Revision: 0
# Processed by: cddbd v1.5.2PL0 Copyright (c) Steve Scherf et al.
# Submitted via: ExactAudioCopy v1.0b3
#
DISCID=520e0618
DTITLE=The Louvin Brothers - Complete Recorded Works 1952-62 CD3
DYEAR=2014
DGENRE=Country
TTITLE0=The Family Who Prays (Never Shall Part)
TTITLE1=Born Again
TTITLE2=If We Forget God
TTITLE3=Satan Lied to Me
TTITLE4=God Bless Her (Cause She's My Mother)
TTITLE5=Love Thy Neighbor As Thy Self
TTITLE6=Preach The Gospel
TTITLE7=Just Rehearsing
TTITLE8=Pray For Me
TTITLE9=Satan And The Saint
TTITLE10=Swing Low, Sweet Chariot
TTITLE11=Make Him a Soldier
TTITLE12=Are You Wasting My Time
TTITLE13=If I Could Only Win Your Love
TTITLE14=Today
TTITLE15=Read What's In My Heart
TTITLE16=I Wonder If You Know
TTITLE17=Memories And Tears
TTITLE18=On My Way To The Show
TTITLE19=My Heart Was Trampled On The Street
TTITLE20=She'll Get Lonesome
TTITLE21=Red Hen Hop
TTITLE22=Blue
TTITLE23=Send Me The Pillow You Dream On
EXTD=
EXTT0=
EXTT1=
EXTT2=
EXTT3=
EXTT4=
EXTT5=
EXTT6=
EXTT7=
EXTT8=
EXTT9=
EXTT10=
EXTT11=
EXTT12=
EXTT13=
EXTT14=
EXTT15=
EXTT16=
EXTT17=
EXTT18=
EXTT19=
EXTT20=
EXTT21=
EXTT22=
EXTT23=
PLAYORDER=
